<!DOCTYPE svg PUBLIC "-//W3C//DTD SVG 1.1//EN" "http://www.w3.org/Graphics/SVG/1.1/DTD/svg11.dtd">
<!-- Uploaded to: SVG Find, www.svgrepo.com, Transformed by: SVG Find Mixer Tools -->
<svg width="800px" height="800px" version="1.1" viewBox="144 144 512 512" xmlns="http://www.w3.org/2000/svg" fill="#ffffff">
<g id="SVGRepo_bgCarrier" stroke-width="0"/>
<g id="SVGRepo_tracerCarrier" stroke-linecap="round" stroke-linejoin="round"/>
<g id="SVGRepo_iconCarrier"> <defs> <clipPath id="a"> <path d="m148.09 156h503.81v488h-503.81z"/> </clipPath> </defs> <g clip-path="url(#a)"> <path d="m651.9 434.79c0.082031-0.57422 0.082031-1.1562 0-1.7305 0-0.39453 0-0.78906-0.39453-1.1797-0.39453-0.39453 0 0 0-0.47266l-86.195-157.36c-1.3633-2.4297-3.9102-3.9531-6.6914-4.0156h-11.965v-105.72c0-2.0859-0.83203-4.0898-2.3086-5.5664-1.4766-1.4766-3.4766-2.3047-5.5664-2.3047h-215.93c-4.3477 0-7.8711 3.5234-7.8711 7.8711v33.535h-17.949c-4.3477 0-7.8711 3.5273-7.8711 7.875v31.883l-28.18-0.003906c-4.3477 0-7.875 3.5273-7.875 7.8711v24.719h-11.492c-2.8359-0.054688-5.4805 1.418-6.9258 3.8594l-85.648 157.44c-0.24219 0.49609-0.39844 1.0273-0.47266 1.5742-0.082031 0.44141-0.082031 0.89453 0 1.3359v0.39453 177.75c0 8.1016 3.2188 15.871 8.9453 21.598 5.7266 5.7266 13.496 8.9453 21.598 8.9453h442.25c8.1016 0 15.871-3.2188 21.598-8.9453 5.7266-5.7266 8.9453-13.496 8.9453-21.598zm-105.17-149.57h7.2422l77.539 142.48h-84.855zm-216.24-113.51h200.89v255.76h-23.617v-221.99c0-2.0859-0.82812-4.0898-2.3047-5.5664-1.4766-1.4766-3.4805-2.3047-5.5664-2.3047h-169.41zm-25.82 41.406h187.67v214.36h-20.781v-182.47c0-2.0898-0.82813-4.0898-2.3047-5.5664-1.4766-1.4766-3.4805-2.3086-5.5664-2.3086h-159.02zm-36.055 64.395v-24.879h187.67v174.84h-187.67zm-22.434 7.4766h7.1641v142.48h-84.781zm390.45 327.55c0.125 4.1328-1.4258 8.1367-4.3047 11.105s-6.8359 4.6406-10.969 4.6406h-442.72c-4.1328 0-8.0898-1.6719-10.969-4.6406-2.8789-2.9688-4.4297-6.9727-4.3008-11.105v-169.8h473.27z"/> </g> <path d="m335.21 561.61h129.57c6.0742 0 11.902-2.4102 16.199-6.707s6.707-10.125 6.707-16.199v-6.6133c0-6.0742-2.4102-11.902-6.707-16.195-4.2969-4.2969-10.125-6.7109-16.199-6.7109h-129.57c-6.0742 0-11.902 2.4141-16.199 6.7109-4.293 4.293-6.707 10.121-6.707 16.195v6.6133c0 6.0742 2.4141 11.902 6.707 16.199 4.2969 4.2969 10.125 6.707 16.199 6.707zm-7.8711-29.52c0-4.3477 3.5234-7.8711 7.8711-7.8711h129.57c2.0898 0 4.0898 0.82812 5.5664 2.3047 1.4766 1.4766 2.3047 3.4805 2.3047 5.5664v6.6133c0 2.0898-0.82812 4.0898-2.3047 5.5664-1.4766 1.4766-3.4766 2.3047-5.5664 2.3047h-129.57c-4.3477 0-7.8711-3.5234-7.8711-7.8711z"/> <path d="m423.61 278.06h-122.49c-2.3516-0.58984-4.8438-0.0625-6.7539 1.4297-1.9141 1.4883-3.0312 3.7812-3.0312 6.2031 0 2.4258 1.1172 4.7148 3.0312 6.207 1.9102 1.4922 4.4023 2.0195 6.7539 1.4297h122.49c3.5039-0.87891 5.9609-4.0234 5.9609-7.6367 0-3.6094-2.457-6.7578-5.9609-7.6328z"/> <path d="m423.61 314.27h-122.49c-2.3516-0.58984-4.8438-0.0625-6.7539 1.4297-1.9141 1.4922-3.0312 3.7812-3.0312 6.2031 0 2.4258 1.1172 4.7148 3.0312 6.207 1.9102 1.4922 4.4023 2.0195 6.7539 1.4297h122.49c3.5039-0.875 5.9609-4.0234 5.9609-7.6367 0-3.6094-2.457-6.7578-5.9609-7.6328z"/> <path d="m423.61 350.56h-122.49c-3.5 0.87891-5.957 4.0234-5.957 7.6367 0 3.6094 2.457 6.7578 5.957 7.6328h122.49c2.3516 0.58984 4.8477 0.0625 6.7578-1.4297 1.9102-1.4883 3.0273-3.7812 3.0273-6.2031 0-2.4258-1.1172-4.7148-3.0273-6.207-1.9102-1.4922-4.4062-2.0195-6.7578-1.4297z"/> <path d="m423.61 386.77h-122.49c-3.5 0.87891-5.957 4.0273-5.957 7.6367s2.457 6.7578 5.957 7.6367h122.49c3.5039-0.87891 5.9609-4.0273 5.9609-7.6367s-2.457-6.7578-5.9609-7.6367z"/> </g>
</svg>