<!DOCTYPE svg PUBLIC "-//W3C//DTD SVG 1.1//EN" "http://www.w3.org/Graphics/SVG/1.1/DTD/svg11.dtd">
<!-- Uploaded to: SVG Find, www.svgrepo.com, Transformed by: SVG Find Mixer Tools -->
<svg fill="#ffffff" width="800px" height="800px" version="1.1" viewBox="144 144 512 512" xmlns="http://www.w3.org/2000/svg">
<g id="SVGRepo_bgCarrier" stroke-width="0"/>
<g id="SVGRepo_tracerCarrier" stroke-linecap="round" stroke-linejoin="round"/>
<g id="SVGRepo_iconCarrier"> <g> <path d="m582.39 537.8c-7.9102-39.203-49.359-67.699-98.598-67.699h-5.707l19.562 45.422c2.2422 5.1953 0.47266 11.258-4.1719 14.445l-16.492 11.219 3.1875 18.027c0.62891 3.4648-0.31641 7.0078-2.5977 9.7227l-40.383 47.547h-10.312l44.715-52.664c0.74609-0.90625 1.0625-2.0859 0.86719-3.2266l-4.1328-23.066 20.703-14.09c1.5742-1.0625 2.1641-3.0703 1.418-4.8008l-19.918-46.168c-0.62891-1.457-2.0469-2.3633-3.6211-2.3633h-19.445-0.23438v-60.691c8.4219-9.6445 14.523-17.672 15.113-23.145 0.19531-2.0078 0.39453-6.1406 0.55078-11.57 6.3359-4.0938 11.059-11.531 13.383-21.332 3.2656-13.895 0.82812-28.969-6.2188-38.414-1.7305-2.3203-3.7773-4.0547-6.0234-5.2344 0.078126-7.0078 0.11719-11.57 0.11719-11.57s8.6211-15.902 9.6055-24.48c2.2422-19.363-1.8125-44.203-21.137-55.93-19.324-11.73-67.777-1.0234-89.109-1.0234s-26.016-6.6523-38.18-1.418c-12.164 5.2344-18.773 20.348-18.773 20.348-6.0625 4.1328-14.719 6.4961-25.543 3.6992 0 0 11.77 25.938 30.66 41.445-2.7539 6.4961-5.0781 13.656-7.0078 21.293-10.234 6.4961-17.121 18.383-17.121 31.961 0 9.7617 3.582 18.617 9.3672 25.27-1.8906 33.219 0.55078 67.188 13.027 78.289 3.2266 6.0625 9.0547 15.785 15.625 21.059 11.141 8.9336 25.82 9.3281 38.965 8.3047v3.1094h-18.066c-1.3008 0-2.5195 0.62891-3.2656 1.7305l-31.527 46.168c-1.1406 1.6914-0.82812 3.9766 0.74609 5.2734l16.609 13.656-9.8398 22.828c-0.55078 1.3008-0.39453 2.793 0.47266 3.8984l39.516 52.82h-9.8398l-35.977-48.137c-2.5195-3.3438-3.0312-7.8711-1.3789-11.73l7.4766-17.398-12.043-9.8789c-4.7617-3.8984-5.7461-10.707-2.2422-15.785l29.637-43.414c-41.133 0.98438-77.578 22.316-91.316 53.766l-41.484 94.938c-0.55078 1.2188-0.43359 2.6367 0.31641 3.7383 0.70703 1.1016 1.9688 1.7695 3.2656 1.7695h389.47c1.1797 0 2.2812-0.51172 3.0312-1.457 0.74609-0.90625 1.0625-2.0859 0.82812-3.2656l-16.531-81.828zm-178.14-19.207c4.0547 5.8633 9.5234 12.043 15.625 14.762 2.4805-12.082 5.1172-23.027 7.5195-32.355 3.8164-2.3203 7.3594-5.1953 10.508-8.6992-4.0547 14.602-9.4453 36.094-13.578 60.102-4.6055 26.961-8.2266 54.555-9.4453 64.078h-10.941l0.31641-97.887zm-1.6133-202.31c-0.55078-0.51172-5.707-4.8398-16.254-4.3672-10.195 0.47266-14.641 5.1562-15.391 6.0625 4.8398-7.9492 13.145-13.266 22.594-13.266 5.7461 0 11.059 1.9688 15.469 5.3125 1.1797 3.543 2.5586 6.8867 4.4492 8.1484 4.7227 3.1484 6.6133 11.609 6.6133 11.609s0.15625 2.7148 0.39453 7.0859c-1.3398 14.84-12.871 26.449-26.883 26.449-14.918 0-27.039-13.145-27.039-29.324 0-5.3516 1.3398-10.352 3.6602-14.641-0.47266 1.457 0 3.1094 1.2188 4.1719 0.74609 0.62891 1.6133 0.90625 2.5195 0.90625 1.1016 0 2.2031-0.47266 2.9922-1.3398 0.11719-0.11719 2.793-3.0312 9.8398-3.3867 7.2031-0.39453 10.547 2.2812 10.586 2.3633 1.6133 1.457 4.0938 1.3008 5.5508-0.31641 1.457-1.6133 1.3008-4.0938-0.31641-5.5508zm66.008 35.266c-1.9688 8.4219-6.1406 14.762-11.336 17.359-12.91 6.4531-22.633-2.832-23.027-3.1875-0.66797-0.66797-1.5352-1.0234-2.4414-1.1016l3.2266-35.582c1.2578 0.11719 2.5195-0.31641 3.3867-1.3398 2.7539-3.3438 11.453-11.887 18.539-11.887h0.23437c2.5586 0.078124 4.6055 1.3008 6.5352 3.8555 5.6289 7.5195 7.5977 20.309 4.8398 31.883zm-154.73-29.875c1.6523 1.3398 4.1328 1.1016 5.5117-0.55078 0.11719-0.15625 3.1094-3.6211 8.4609-3.6211 6.8086 0 10.391 4.4492 10.586 4.6836 0.78906 1.0234 1.9688 1.5742 3.1484 1.5742 0.82812 0 1.6523-0.23438 2.3633-0.78906 1.7305-1.3008 2.0859-3.6992 0.82812-5.4727 2.9922 4.7227 4.7617 10.43 4.7617 16.57 0 16.176-12.121 29.324-27.039 29.324-6.6523 0-12.754-2.6367-17.477-7.0078 0.78906-12.359 2.2422-25.387 4.4102-38.414 0.62891-3.7383 1.3398-7.2812 2.125-10.668 3.3438-1.6133 7.0469-2.5195 10.941-2.5195 9.1719 0 17.277 5 22.16 12.594-0.51172-0.66797-6.1406-7.7148-16.809-7.7148-9.25 0-14.367 6.2969-14.562 6.5742-1.3398 1.6914-1.0625 4.1328 0.58984 5.4727zm-18.422 12.398c0-7.2422 2.4414-13.895 6.4961-19.012-0.078126 0.55078-0.23438 1.1016-0.31641 1.6523-1.4961 8.8945-2.793 19.012-3.7383 29.48-1.5742-3.6992-2.4414-7.793-2.4414-12.121zm9.0547 31.844c5.2344 3.3867 11.375 5.3516 17.949 5.3516s12.121-1.8125 17.238-4.8789c-2.875 6.2578-5.3516 12.359-5.6289 15.23-0.35547 3.7383 0.70703 7.125 3.1094 9.7617 5.707 6.2969 17.121 6.4961 18.383 6.4961 2.1641 0 3.9375-1.7695 3.9375-3.9375 0-2.1641-1.7695-3.9375-3.9375-3.9375-2.3633 0-9.7227-0.74609-12.594-3.8984-0.90625-1.0234-1.2578-2.1641-1.1016-3.6992 0.31641-3.3438 7.3594-18.383 13.973-31.055 0.82812-1.5352 0.47266-3.3438-0.66797-4.5273 1.3789-3.9766 2.1641-8.2266 2.1641-12.715 0-20.508-15.664-37.195-34.914-37.195-2.9531 0-5.7852 0.43359-8.543 1.1797 1.3008-4.4883 2.7539-8.6602 4.3281-12.516 4.1328 2.5977 8.543 4.5664 13.227 5.668 18.184 4.25 39.242 5.9453 53.961 6.7305-15.352 3.8984-26.805 18.617-26.805 36.133 0 20.508 15.664 37.195 34.914 37.195 11.297 0 21.332-5.7852 27.711-14.68 0.62891 19.285 0.94531 43.258-1.2188 51.012-3.7773 13.656-30.148 29.207-50.895 30.148-13.895 0.62891-36.879-2.0078-50.578-3.8164-1.1016-0.55078-2.0469-1.1016-2.793-1.6914-8.4219-6.2969-12.438-33.062-11.219-66.359zm75.887 99.465c15.703-1.418 35.031-19.996 46.051-32.668 4.3672-5.0391 8.7383-9.8398 12.871-14.445v56.758c-7.6758 19.918-28.023 27.395-44.359 24.52-10.902-1.9297-22.555-9.2109-22.555-23.812v-9.5664c2.793-0.31641 5.5117-0.62891 7.9883-0.82812zm-14.957 81.828c0-24.09 1.418-44.16 2.5977-57.07 1.7695 3.3438 4.1719 6.2969 7.125 8.8164-0.82812 10.156-1.5742 23.184-1.8125 38.18 0.15625 0.039063 0.31641 0.039063 0.47266 0.039063h0.039063c9.1719 0 17.043-8.8164 22.434-17.199l-0.31641 96.473h-25.543c-1.3008-10.273-5.0391-42.035-5.0391-69.234z"/> <path d="m449.32 331.59c-4.3672 0.86719-8.1094 4.25-11.141 10.035-3.1875 6.1016-1.457 10.273-0.15625 12.242 1.8906 2.832 5.3125 4.5664 8.8164 4.5664 0.31641 0 0.66797 0 1.0234-0.039063 3.3867-0.31641 6.1797-2.2812 7.4766-5.2344 1.6133-3.7773 1.1406-7.3984-1.3008-10.273-1.0625-1.2188-2.9141-1.3789-4.1719-0.31641-1.2188 1.0625-1.3789 2.9141-0.31641 4.1719 0.70703 0.82812 1.2578 1.9297 0.35547 4.0938-0.55078 1.2578-1.6914 1.6133-2.5977 1.6914-1.6914 0.15625-3.5039-0.62891-4.3672-1.9297-1.3008-1.8906-0.43359-4.4492 0.47266-6.2188 2.0859-4.0156 4.5273-6.4531 7.0078-6.9648 2.6758-0.55078 4.9219 1.1797 5 1.2188 1.2578 1.0234 3.1094 0.86719 4.1328-0.39453 1.0625-1.2578 0.86719-3.1094-0.35547-4.1719-0.15625-0.15625-4.3672-3.582-9.8789-2.4805z"/> <path d="m328.52 344.89c3.6211 0 6.5742-3.9766 6.5742-8.8945 0-4.9219-2.9531-8.8945-6.5742-8.8945-3.6211 0-6.5742 3.9766-6.5742 8.8945 0 4.9219 2.9531 8.8945 6.5742 8.8945z"/> <path d="m386.97 327.06c-3.6211 0-6.5742 3.9766-6.5742 8.8945 0 4.9219 2.9531 8.8945 6.5742 8.8945s6.5742-3.9766 6.5742-8.8945c0-4.9219-2.9531-8.8945-6.5742-8.8945z"/> <path d="m345.6 420.39c0.35547 0.11719 1.6523 0.47266 3.8555 0.47266 4.1328 0 11.414-1.3008 21.332-8.0312 1.8125-1.2188 2.2812-3.6602 1.0625-5.4727s-3.6602-2.2812-5.4727-1.0625c-11.73 7.9102-18.145 6.6133-18.461 6.5352-2.0469-0.58984-4.2109 0.51172-4.8398 2.5586-0.66797 2.0859 0.47266 4.2891 2.5195 4.9609z"/> </g> </g>
</svg>