<!DOCTYPE svg PUBLIC "-//W3C//DTD SVG 1.1//EN" "http://www.w3.org/Graphics/SVG/1.1/DTD/svg11.dtd">
<!-- Uploaded to: SVG Find, www.svgrepo.com, Transformed by: SVG Find Mixer Tools -->
<svg fill="#ffffff" width="800px" height="800px" version="1.1" viewBox="144 144 512 512" xmlns="http://www.w3.org/2000/svg" stroke="#ffffff">
<g id="SVGRepo_bgCarrier" stroke-width="0"/>
<g id="SVGRepo_tracerCarrier" stroke-linecap="round" stroke-linejoin="round"/>
<g id="SVGRepo_iconCarrier"> <path d="m556.92 195.24h-95.828v-16.809h-111.11v16.812l-69.418-0.003907h-26.41v145.79h-11.082v233.55l34.207 52.926 33.199-52.98v-11.031h246.44zm-193.09-2.9688h83.422v19.781h-83.422zm-13.844 16.812v16.812h111.16v-16.812h55.527v314.16h-206.19v-182.22h-16.07v-131.95zm-53.352 352.08h-12.941v-165.46h12.941zm0-179.3h-39.723v-26.992h39.723zm-26.781 13.84v165.46h-12.941v-165.46zm-1.8555-186.62h12.57v131.95h-12.57zm9.1211 392.65-17.289-26.727h33.992zm265.96-52.078h-232.6v-12.57h220.03v-328h12.57zm-51.496-243.95h-172.14v-13.84h172.14zm0 28.586h-172.14v-13.844h172.14zm0-57.117h-172.14v-13.84h172.14zm-61.305 111.53h52.133v52.133h-13.84v-28.055l-69.637 72.176-10.5-49.852-51.547 54.836-10.078-9.4922 69.684-74.246 10.605 50.273 52.078-53.988h-28.902z"/> </g>
</svg>