<!DOCTYPE svg PUBLIC "-//W3C//DTD SVG 1.1//EN" "http://www.w3.org/Graphics/SVG/1.1/DTD/svg11.dtd">
<!-- Uploaded to: SVG Find, www.svgrepo.com, Transformed by: SVG Find Mixer Tools -->
<svg fill="#ffffff" width="800px" height="800px" version="1.1" viewBox="144 144 512 512" xmlns="http://www.w3.org/2000/svg">
<g id="SVGRepo_bgCarrier" stroke-width="0"/>
<g id="SVGRepo_tracerCarrier" stroke-linecap="round" stroke-linejoin="round"/>
<g id="SVGRepo_iconCarrier"> <path d="m341.32 232.11c0-4.1211 3.3359-7.457 7.457-7.457h118.75c4.1211 0 7.457 3.3359 7.457 7.457 0 4.1211-3.3359 7.457-7.457 7.457h-118.75c-4.1211 0-7.457-3.3398-7.457-7.457zm279.69 180.12v182.01c0 24.52-19.949 44.465-44.473 44.465h-353.08c-24.52 0-44.473-19.949-44.473-44.465v-285.19c0-24.52 19.949-44.473 44.473-44.473h60.828v-95.824c0-4.1211 3.3359-7.457 7.457-7.457h234.21c1.9766 0 3.8711 0.78906 5.2734 2.1836l45.281 45.285c1.4023 1.4023 2.1836 3.2969 2.1836 5.2734v153.79c23.531 1.1211 42.324 20.613 42.324 44.406zm-87.598-205.66h19.812l-19.812-19.816zm-234.21 58.004h32.574c10.629 0 20.379 3.1133 28.465 8.8281 0.074218 0 0.15234-0.011719 0.22656-0.011719h153.73c4.1211 0 7.457 3.3359 7.457 7.457 0 4.1211-3.3359 7.457-7.457 7.457h-140.18c0.19922 0.33203 0.41797 0.65234 0.61328 0.99219l18.988 32.844h120.58c4.1211 0 7.457 3.3359 7.457 7.457 0 4.1211-3.3359 7.457-7.457 7.457h-111.95l17.754 30.699h143.77v-146.27h-37.828c-4.1211 0-7.457-3.3359-7.457-7.457v-37.828h-219.29zm-105.3 44.469v58.719h208.86l-41.047-70.996c-6.3438-10.98-17.262-17.27-29.941-17.27h-108.32c-16.297-0.007812-29.555 13.25-29.555 29.547zm412.19 103.18c0-16.297-13.258-29.551-29.551-29.551h-382.64v211.55c0 16.297 13.258 29.551 29.551 29.551h353.09c16.297 0 29.551-13.258 29.551-29.551zm-60.598 104.98h-149.34c-4.1211 0-7.457 3.3359-7.457 7.457 0 4.1211 3.3359 7.457 7.457 7.457h149.34c4.1211 0 7.457-3.3359 7.457-7.457 0-4.1172-3.3398-7.457-7.457-7.457zm0 44.691h-149.34c-4.1211 0-7.457 3.3359-7.457 7.457 0 4.1211 3.3359 7.457 7.457 7.457h149.34c4.1211 0 7.457-3.3359 7.457-7.457 0-4.1172-3.3398-7.457-7.457-7.457z"/> </g>
</svg>