<!DOCTYPE svg PUBLIC "-//W3C//DTD SVG 1.1//EN" "http://www.w3.org/Graphics/SVG/1.1/DTD/svg11.dtd">
<!-- Uploaded to: SVG Find, www.svgrepo.com, Transformed by: SVG Find Mixer Tools -->
<svg fill="#ffffff" width="800px" height="800px" version="1.1" viewBox="144 144 512 512" xmlns="http://www.w3.org/2000/svg">
<g id="SVGRepo_bgCarrier" stroke-width="0"/>
<g id="SVGRepo_tracerCarrier" stroke-linecap="round" stroke-linejoin="round"/>
<g id="SVGRepo_iconCarrier"> <g> <path d="m400 443.04c18.711 0 33.93-15.23 33.93-33.941v-10.973c0-18.711-15.219-33.926-33.93-33.926s-33.93 15.211-33.93 33.926v10.973c-0.003906 18.711 15.215 33.941 33.93 33.941zm-25.395-44.914c0-13.996 11.391-25.387 25.391-25.387s25.391 11.391 25.391 25.387v10.973c0 14.012-11.391 25.402-25.391 25.402s-25.391-11.391-25.391-25.402z"/> <path d="m482.1 424.93c18.711 0 33.93-15.211 33.93-33.926v-10.992c0-18.711-15.219-33.926-33.93-33.926-18.711 0-33.93 15.211-33.93 33.926v10.992c0 18.711 15.219 33.926 33.93 33.926zm-25.391-44.918c0-13.996 11.391-25.387 25.391-25.387s25.391 11.391 25.391 25.387v10.992c0 13.996-11.391 25.387-25.391 25.387s-25.391-11.391-25.391-25.387z"/> <path d="m400 354.62c18.711 0 33.93-15.23 33.93-33.941v-10.973c0-18.711-15.219-33.926-33.93-33.926s-33.93 15.211-33.93 33.926v10.973c-0.003906 18.711 15.215 33.941 33.93 33.941zm-25.395-44.918c0-13.996 11.391-25.387 25.391-25.387s25.391 11.391 25.391 25.387v10.973c0 14.012-11.391 25.402-25.391 25.402s-25.391-11.391-25.391-25.402z"/> <path d="m482.1 336.51c18.711 0 33.93-15.211 33.93-33.926v-10.973c0-18.711-15.219-33.941-33.93-33.941-18.711 0-33.93 15.23-33.93 33.941v10.973c0 18.715 15.219 33.926 33.93 33.926zm-25.391-44.898c0-14.012 11.391-25.402 25.391-25.402s25.391 11.391 25.391 25.402v10.973c0 13.996-11.391 25.387-25.391 25.387s-25.391-11.391-25.391-25.387z"/> <path d="m317.89 336.51c18.711 0 33.93-15.211 33.93-33.926v-10.973c0-18.711-15.219-33.941-33.93-33.941-18.711 0-33.93 15.23-33.93 33.941v10.973c0 18.715 15.215 33.926 33.93 33.926zm-25.391-44.898c0-14.012 11.391-25.402 25.391-25.402s25.391 11.391 25.391 25.402v10.973c0 13.996-11.391 25.387-25.391 25.387s-25.391-11.391-25.391-25.387z"/> <path d="m612.74 434.65c-12.879-12.879-30.008-19.965-48.234-19.965-20.465 0-39.898 9.3945-52.758 25.16-9.1641-4.4492-19.176-7.0469-29.668-7.0469-20.418 0-39.801 9.3516-52.668 25.055-8.9375-4.3125-18.836-6.9375-29.406-6.9375-10.57 0-20.469 2.625-29.406 6.9375-12.867-15.699-32.25-25.055-52.668-25.055-10.496 0-20.512 2.6016-29.676 7.0547-12.867-15.77-32.293-25.164-52.766-25.164-18.227 0-35.355 7.0898-48.234 19.965-12.867 12.879-19.957 30.008-19.957 48.234v9.5234c0 7.5078 6.1094 13.629 13.629 13.629h20.605c0.074219 0.003906 0.12109 0.085937 0.20312 0.085937s0.125-0.082031 0.20312-0.085937h47.793v4.4883c0 7.5078 6.1094 13.629 13.629 13.629h20.645c0.058594 0.003906 0.097657 0.066406 0.16016 0.066406 0.066406 0 0.097656-0.066406 0.16016-0.066406h47.488v4.4375c0 7.5703 6.1562 13.742 13.73 13.742h108.92c7.5703 0 13.734-6.1719 13.734-13.742v-4.4375h47.484c0.058594 0.003906 0.097656 0.066406 0.16016 0.066406 0.058594 0 0.097656-0.066406 0.16016-0.066406h20.645c7.5117 0 13.629-6.1211 13.629-13.629v-4.4883h47.793c0.074219 0.003906 0.12109 0.085937 0.20312 0.085937 0.082031 0 0.125-0.082031 0.20312-0.085937h20.617c7.5117 0 13.629-6.1211 13.629-13.629v-9.5234c-0.023437-18.238-7.1133-35.363-19.984-48.238zm-436.91 57.754v-9.5234c0-15.961 6.1953-30.938 17.457-42.199 11.262-11.262 26.242-17.461 42.199-17.461 17.312 0 33.59 7.8828 44.84 20.863-3.7852 2.5078-7.3555 5.3945-10.641 8.6758-12.035 12.02-18.762 27.824-19.625 44.734h-44.066v-31.875c0-2.3516-1.9102-4.2734-4.2734-4.2734-2.3594 0-4.2734 1.918-4.2734 4.2734v31.875h-16.531c-2.8516 0-5.0859-2.2383-5.0859-5.0898zm82.43 18.117v-9.5234c0-15.961 6.207-30.953 17.461-42.199 11.262-11.262 26.242-17.461 42.199-17.461 17.281 0 33.535 7.8594 44.785 20.797-17.633 11.582-29.383 31.125-30.539 53.473h-43.734v-31.875c0-2.3516-1.9102-4.2734-4.2734-4.2734-2.3633 0-4.2734 1.918-4.2734 4.2734v31.875h-16.535c-2.8594 0-5.0898-2.2344-5.0898-5.0859zm196.2 23.266h-16.453v-31.941c0-2.3516-1.9102-4.2734-4.2734-4.2734s-4.2734 1.918-4.2734 4.2734v31.941h-58.922v-31.941c0-2.3516-1.9102-4.2734-4.2734-4.2734s-4.2734 1.918-4.2734 4.2734v31.941h-16.465c-2.8633 0-5.1875-2.332-5.1875-5.2031v-8.625c0-0.03125 0.035156-0.050782 0.035156-0.082032s-0.03125-0.050781-0.035156-0.082031v-0.68359c0-32.891 26.762-59.66 59.652-59.66s59.652 26.766 59.652 59.66v0.66406c0 0.039062-0.039063 0.058594-0.039063 0.10156 0 0.039063 0.039063 0.058594 0.039063 0.10156v8.6055c0.007813 2.8672-2.3203 5.2031-5.1836 5.2031zm87.273-23.266c0 2.8516-2.2383 5.0898-5.0898 5.0898h-16.535v-31.875c0-2.3516-1.9102-4.2734-4.2734-4.2734-2.3594 0-4.2734 1.918-4.2734 4.2734v31.875h-43.73c-1.1602-22.348-12.906-41.891-30.539-53.473 11.246-12.938 27.496-20.797 44.785-20.797 15.957 0 30.938 6.207 42.199 17.461 11.262 11.238 17.457 26.219 17.457 42.199zm82.434-18.117c0 2.8516-2.2383 5.0898-5.0898 5.0898h-16.543v-31.875c0-2.3516-1.9102-4.2734-4.2734-4.2734-2.3594 0-4.2734 1.918-4.2734 4.2734v31.875h-44.062c-0.85547-16.914-7.5859-32.727-19.613-44.734-3.2852-3.2852-6.8555-6.1719-10.645-8.6797 11.25-12.977 27.527-20.859 44.84-20.859 15.957 0 30.938 6.207 42.199 17.461 11.262 11.262 17.461 26.254 17.461 42.199z"/> <path d="m564.53 406.81c18.711 0 33.93-15.211 33.93-33.926l0.003907-10.973c0-18.711-15.219-33.941-33.93-33.941s-33.93 15.23-33.93 33.941v10.973c-0.003906 18.719 15.215 33.926 33.926 33.926zm-25.391-44.898c0-14.012 11.391-25.402 25.391-25.402s25.391 11.391 25.391 25.402v10.973c0 13.996-11.391 25.387-25.391 25.387s-25.391-11.391-25.391-25.387z"/> <path d="m235.46 406.81c18.711 0 33.93-15.211 33.93-33.926v-10.973c0-18.711-15.219-33.941-33.93-33.941-18.711 0-33.93 15.23-33.93 33.941v10.973c-0.003906 18.719 15.215 33.926 33.93 33.926zm-25.395-44.898c0-14.012 11.391-25.402 25.391-25.402s25.391 11.391 25.391 25.402v10.973c0 13.996-11.391 25.387-25.391 25.387s-25.391-11.391-25.391-25.387z"/> <path d="m317.89 424.93c18.711 0 33.93-15.211 33.93-33.926v-10.992c0-18.711-15.219-33.926-33.93-33.926-18.711 0-33.93 15.211-33.93 33.926v10.992c0 18.711 15.215 33.926 33.93 33.926zm-25.391-44.918c0-13.996 11.391-25.387 25.391-25.387s25.391 11.391 25.391 25.387v10.992c0 13.996-11.391 25.387-25.391 25.387s-25.391-11.391-25.391-25.387z"/> </g> </g>
</svg>