<!DOCTYPE svg PUBLIC "-//W3C//DTD SVG 1.1//EN" "http://www.w3.org/Graphics/SVG/1.1/DTD/svg11.dtd">
<!-- Uploaded to: SVG Find, www.svgrepo.com, Transformed by: SVG Find Mixer Tools -->
<svg fill="#ffffff" width="800px" height="800px" version="1.1" viewBox="144 144 512 512" xmlns="http://www.w3.org/2000/svg">
<g id="SVGRepo_bgCarrier" stroke-width="0"/>
<g id="SVGRepo_tracerCarrier" stroke-linecap="round" stroke-linejoin="round"/>
<g id="SVGRepo_iconCarrier"> <g> <path d="m541.7 565.31v-346.37c-0.007812-6.2617-2.4961-12.262-6.9258-16.691-4.4258-4.4258-10.43-6.918-16.691-6.9258h-212.54v-7.8711c0-8.4375-4.5039-16.234-11.809-20.453-7.3086-4.2188-16.309-4.2188-23.617 0-7.3047 4.2188-11.809 12.016-11.809 20.453v7.8711h-23.613c-6.2617 0.007812-12.266 2.5-16.691 6.9258-4.4297 4.4297-6.918 10.43-6.9258 16.691v346.37c0.007813 6.2578 2.4961 12.262 6.9258 16.691 4.4258 4.4258 10.43 6.918 16.691 6.9219h283.39c6.2617-0.003906 12.266-2.4961 16.691-6.9219 4.4297-4.4297 6.918-10.434 6.9258-16.691zm-267.65-377.86c0-4.3477 3.5234-7.8711 7.8711-7.8711 4.3477 0 7.8711 3.5234 7.8711 7.8711v7.8711h-15.742zm-47.234 377.86v-346.37c0.007812-4.3438 3.5273-7.8672 7.875-7.8711h23.617l-0.003907 31.488c0 8.4375 4.5039 16.234 11.809 20.453 7.3086 4.2188 16.309 4.2188 23.617 0 7.3047-4.2188 11.809-12.016 11.809-20.453v-7.8711c0-4.3477-3.5234-7.875-7.8711-7.875-4.3477 0-7.875 3.5273-7.875 7.875v7.8711c0 4.3477-3.5234 7.8711-7.8711 7.8711-4.3477 0-7.8711-3.5234-7.8711-7.8711v-31.488h244.03c4.3477 0.003907 7.8672 3.5273 7.8711 7.8711v346.37c-0.003907 4.3438-3.5234 7.8672-7.8711 7.8711h-283.39c-4.3477-0.003906-7.8672-3.5273-7.875-7.8711z"/> <path d="m565.31 242.56h-7.875c-4.3477 0-7.8711 3.5234-7.8711 7.8711 0 4.3477 3.5234 7.8711 7.8711 7.8711h7.875c4.3438 0.007813 7.8672 3.5273 7.8711 7.875v346.37c-0.003906 4.3477-3.5273 7.8672-7.8711 7.8711h-283.39c-4.3438-0.003906-7.8672-3.5234-7.8711-7.8711v-7.8711c0-4.3477-3.5234-7.8711-7.8711-7.8711-4.3477 0-7.875 3.5234-7.875 7.8711v7.8711c0.007813 6.2617 2.5 12.266 6.9258 16.691 4.4258 4.4258 10.43 6.918 16.691 6.9258h283.39c6.2578-0.007812 12.262-2.5 16.691-6.9258 4.4258-4.4258 6.918-10.43 6.9219-16.691v-346.37c-0.003906-6.2617-2.4961-12.266-6.9219-16.691-4.4297-4.4297-10.434-6.918-16.691-6.9258z"/> <path d="m274.05 470.85h47.23c4.1758-0.007812 8.1758-1.668 11.129-4.6172 2.9492-2.9531 4.6094-6.9531 4.6172-11.129v-7.8711h55.105-0.003906c4.3477 0 7.875-3.5234 7.875-7.8711s-3.5273-7.8711-7.875-7.8711h-55.102v-7.875c-0.007813-4.1719-1.668-8.1758-4.6172-11.125-2.9531-2.9531-6.9531-4.6133-11.129-4.6172h-47.23c-4.1758 0.003906-8.1758 1.6641-11.129 4.6172-2.9492 2.9492-4.6094 6.9531-4.6172 11.125v31.488c0.007813 4.1758 1.668 8.1758 4.6172 11.129 2.9531 2.9492 6.9531 4.6094 11.129 4.6172zm0-47.23h47.23l0.011718 31.488-47.242-0.003907z"/> <path d="m360.64 329.15h55.105v7.875c0.003906 4.1719 1.6641 8.1758 4.6172 11.125 2.9531 2.9531 6.9531 4.6133 11.129 4.6172h47.23c4.1758-0.003906 8.1758-1.6641 11.129-4.6172 2.9492-2.9492 4.6094-6.9531 4.6133-11.125v-31.488c-0.003907-4.1758-1.6641-8.1758-4.6133-11.129-2.9531-2.9492-6.9531-4.6094-11.129-4.6172h-47.23c-4.1758 0.007813-8.1758 1.668-11.129 4.6172-2.9531 2.9531-4.6133 6.9531-4.6172 11.129v7.8711h-55.105c-4.3477 0-7.8711 3.5234-7.8711 7.8711s3.5234 7.8711 7.8711 7.8711zm118.08-23.617v31.488l-47.23 0.003907v-31.488z"/> <path d="m455.1 368.51c-4.3477 0-7.8711 3.5234-7.8711 7.8711v31.488h-15.742c-4.1758 0.003906-8.1758 1.6641-11.129 4.6172-2.9531 2.9492-4.6133 6.9531-4.6172 11.125v31.488c0.003906 4.1758 1.6641 8.1758 4.6172 11.129 2.9531 2.9492 6.9531 4.6094 11.129 4.6172h47.23c4.1758-0.007812 8.1758-1.668 11.129-4.6172 2.9492-2.9531 4.6094-6.9531 4.6133-11.129v-31.488c-0.003907-4.1719-1.6641-8.1758-4.6133-11.125-2.9531-2.9531-6.9531-4.6133-11.129-4.6172h-15.742v-31.488c0-2.0898-0.83203-4.0898-2.3086-5.5664-1.4766-1.4766-3.4766-2.3047-5.5664-2.3047zm23.617 86.594-47.23-0.003907v-31.488h47.23z"/> <path d="m289.79 502.34c0 4.3477-3.5234 7.8711-7.8711 7.8711-4.3477 0-7.8711-3.5234-7.8711-7.8711 0-4.3477 3.5234-7.875 7.8711-7.875 4.3477 0 7.8711 3.5273 7.8711 7.875"/> <path d="m486.59 494.46h-173.18c-4.3477 0-7.8711 3.5273-7.8711 7.875 0 4.3477 3.5234 7.8711 7.8711 7.8711h173.18c4.3477 0 7.8711-3.5234 7.8711-7.8711 0-4.3477-3.5234-7.875-7.8711-7.875z"/> <path d="m431.49 250.43c0 4.3477-3.5273 7.8711-7.875 7.8711-4.3477 0-7.8711-3.5234-7.8711-7.8711 0-4.3477 3.5234-7.8711 7.8711-7.8711 4.3477 0 7.875 3.5234 7.875 7.8711"/> <path d="m486.59 242.56h-31.488c-4.3477 0-7.8711 3.5234-7.8711 7.8711 0 4.3477 3.5234 7.8711 7.8711 7.8711h31.488c4.3477 0 7.8711-3.5234 7.8711-7.8711 0-4.3477-3.5234-7.8711-7.8711-7.8711z"/> <path d="m486.59 525.95h-220.41c-4.3477 0-7.875 3.5273-7.875 7.875 0 4.3477 3.5273 7.8711 7.875 7.8711h220.41c4.3477 0 7.8711-3.5234 7.8711-7.8711 0-4.3477-3.5234-7.875-7.8711-7.875z"/> <path d="m297.66 360.64c10.438 0 20.449-4.1445 27.828-11.527 7.3828-7.3789 11.531-17.391 11.531-27.832 0-10.438-4.1484-20.449-11.531-27.832-7.3789-7.3789-17.391-11.527-27.828-11.527-10.441 0-20.453 4.1484-27.832 11.527-7.3828 7.3828-11.531 17.395-11.531 27.832 0.011719 10.438 4.1641 20.441 11.543 27.82s17.383 11.527 27.82 11.539zm0-62.977v0.003906c6.2617 0 12.27 2.4844 16.695 6.9141 4.4297 4.4297 6.918 10.438 6.918 16.699 0 6.2656-2.4883 12.27-6.918 16.699-4.4258 4.4297-10.434 6.918-16.695 6.918-6.2656 0-12.273-2.4883-16.699-6.918-4.4297-4.4297-6.918-10.434-6.918-16.699 0.007813-6.2617 2.4961-12.262 6.9258-16.691 4.4258-4.4258 10.43-6.918 16.691-6.9219z"/> </g> </g>
</svg>