<svg id="team-success_17236671" xmlns="http://www.w3.org/2000/svg" width="91.857" height="92.355" viewBox="0 0 91.857 92.355">
  <path id="Path_11" data-name="Path 11" d="M30.076,75.049a4.054,4.054,0,0,1-2.372-.768,4.007,4.007,0,0,1-1.6-3.96l1.587-9.268a.641.641,0,0,0-.188-.563l-6.742-6.571a4.041,4.041,0,0,1,2.236-6.9l9.3-1.348a.658.658,0,0,0,.478-.341L36.937,36.9a4.032,4.032,0,0,1,7.237,0l4.164,8.431a.628.628,0,0,0,.478.341l9.3,1.348a4.041,4.041,0,0,1,2.236,6.9L53.629,60.49a.626.626,0,0,0-.188.563l1.587,9.268a4.037,4.037,0,0,1-5.854,4.267l-8.329-4.369a.586.586,0,0,0-.58,0l-8.329,4.369a4.121,4.121,0,0,1-1.877.461Zm10.5-36.985a.605.605,0,0,0-.563.358l-4.164,8.431a4.059,4.059,0,0,1-3.038,2.219L23.5,50.42a.618.618,0,0,0-.512.427.6.6,0,0,0,.154.649l6.742,6.571a4.044,4.044,0,0,1,1.161,3.584l-1.587,9.268a.607.607,0,0,0,.256.614.618.618,0,0,0,.666.051l8.329-4.369a4.055,4.055,0,0,1,3.755,0L50.8,71.584a.618.618,0,0,0,.666-.051.607.607,0,0,0,.256-.614L50.13,61.651a4.059,4.059,0,0,1,1.161-3.584L58.015,51.5a.6.6,0,0,0,.154-.649.618.618,0,0,0-.512-.427l-9.3-1.348a4.02,4.02,0,0,1-3.038-2.219l-4.164-8.431a.605.605,0,0,0-.563-.358Z" transform="translate(5.391 16.058)" fill="#ce181e"/>
  <path id="Path_12" data-name="Path 12" d="M62.314,73.652a3.747,3.747,0,0,1-1.741-.427L53.4,69.453a.293.293,0,0,0-.29,0l-7.168,3.772A3.726,3.726,0,0,1,40.552,69.3l1.365-7.988a.273.273,0,0,0-.085-.273A1.7,1.7,0,1,1,44.2,58.6a3.744,3.744,0,0,1,1.075,3.294L43.915,69.88a.3.3,0,0,0,.119.29.253.253,0,0,0,.324.017l7.168-3.772a3.763,3.763,0,0,1,3.465,0l7.168,3.772a.346.346,0,0,0,.324-.017.26.26,0,0,0,.119-.29l-1.365-7.988A3.7,3.7,0,0,1,62.314,58.6l5.8-5.649a.334.334,0,0,0,.085-.307.255.255,0,0,0-.239-.2l-8.022-1.161a3.72,3.72,0,0,1-2.8-2.031l-3.584-7.271a.324.324,0,0,0-.273-.171.291.291,0,0,0-.273.171l-2.27,4.608a1.706,1.706,0,1,1-3.055-1.519l2.27-4.608a3.714,3.714,0,0,1,6.656,0L60.2,47.726a.353.353,0,0,0,.239.171l8.022,1.161a3.712,3.712,0,0,1,2.065,6.332l-5.8,5.649a.558.558,0,0,0-.085.273L66,69.3a3.737,3.737,0,0,1-3.67,4.352Z" transform="translate(20.208 18.701)" fill="#ce181e"/>
  <path id="Path_13" data-name="Path 13" d="M32.34,73.652a3.747,3.747,0,0,1-1.741-.427l-7.168-3.772a.293.293,0,0,0-.29,0l-7.168,3.772A3.726,3.726,0,0,1,10.579,69.3l1.365-7.988a.273.273,0,0,0-.085-.273l-5.8-5.649a3.712,3.712,0,0,1,2.065-6.332L16.143,47.9a.236.236,0,0,0,.222-.171l3.584-7.271a3.714,3.714,0,0,1,6.656,0l2.133,4.335a1.706,1.706,0,0,1-3.055,1.519L23.55,41.974a.324.324,0,0,0-.273-.171.268.268,0,0,0-.273.171L19.42,49.245a3.72,3.72,0,0,1-2.8,2.031L8.6,52.437a.322.322,0,0,0-.239.2.319.319,0,0,0,.068.307l5.8,5.649a3.744,3.744,0,0,1,1.075,3.294L13.941,69.88a.3.3,0,0,0,.119.29.25.25,0,0,0,.324.017l7.168-3.772a3.763,3.763,0,0,1,3.465,0l7.168,3.772a.346.346,0,0,0,.324-.017.26.26,0,0,0,.119-.29l-1.365-7.988A3.7,3.7,0,0,1,32.34,58.6a1.7,1.7,0,1,1,2.372,2.441.315.315,0,0,0-.085.273L35.993,69.3a3.737,3.737,0,0,1-3.67,4.352Z" transform="translate(-4.93 18.701)" fill="#ce181e"/>
  <g id="Group_28" data-name="Group 28" transform="translate(28.674)">
    <path id="Path_14" data-name="Path 14" d="M36.059,25.319A10.189,10.189,0,1,1,46.249,15.129,10.205,10.205,0,0,1,36.059,25.319Zm0-16.948a6.776,6.776,0,1,0,6.776,6.776A6.781,6.781,0,0,0,36.059,8.371Z" transform="translate(-18.804 -4.94)" fill="#ce181e"/>
    <path id="Path_15" data-name="Path 15" d="M48.867,52.5H47.451a1.707,1.707,0,1,1,0-3.414h1.417a3.955,3.955,0,0,0,3.943-3.943v-15.7a9.6,9.6,0,0,0-9.592-9.592H34.736a9.6,9.6,0,0,0-9.592,9.592v15.7a3.955,3.955,0,0,0,3.943,3.943H30.5a1.707,1.707,0,1,1,0,3.414H29.086a7.357,7.357,0,0,1-7.356-7.356v-15.7A13.024,13.024,0,0,1,34.736,16.44h8.483A13.024,13.024,0,0,1,56.224,29.446v15.7A7.357,7.357,0,0,1,48.867,52.5Z" transform="translate(-21.73 3.188)" fill="#ce181e"/>
    <path id="Path_16" data-name="Path 16" d="M27.577,48.6A1.712,1.712,0,0,1,25.87,46.9V26.517a1.707,1.707,0,0,1,3.414,0V46.9A1.712,1.712,0,0,1,27.577,48.6Z" transform="translate(-18.804 9.103)" fill="#ce181e"/>
    <path id="Path_17" data-name="Path 17" d="M37.507,48.6A1.712,1.712,0,0,1,35.8,46.9V26.517a1.707,1.707,0,1,1,3.414,0V46.9A1.712,1.712,0,0,1,37.507,48.6Z" transform="translate(-11.786 9.103)" fill="#ce181e"/>
  </g>
  <g id="Group_29" data-name="Group 29" transform="translate(63.567 2.68)">
    <path id="Path_18" data-name="Path 18" d="M52.779,26.889A10.189,10.189,0,1,1,62.969,16.7,10.205,10.205,0,0,1,52.779,26.889Zm0-16.948a6.776,6.776,0,1,0,6.776,6.776A6.781,6.781,0,0,0,52.779,9.941Z" transform="translate(-41.881 -6.51)" fill="#ce181e"/>
    <path id="Path_19" data-name="Path 19" d="M62.972,54.081H61.556a1.707,1.707,0,1,1,0-3.414h1.417a3.955,3.955,0,0,0,3.943-3.943v-15.7a9.6,9.6,0,0,0-9.592-9.592H48.84a9.633,9.633,0,0,0-4.2.956,1.71,1.71,0,1,1-1.5-3.072A12.853,12.853,0,0,1,48.823,18h8.483A13.024,13.024,0,0,1,70.311,31.006v15.7a7.357,7.357,0,0,1-7.356,7.356Z" transform="translate(-42.174 1.611)" fill="#ce181e"/>
    <path id="Path_20" data-name="Path 20" d="M44.307,48.575A1.712,1.712,0,0,1,42.6,46.868V28.077a1.707,1.707,0,1,1,3.414,0V46.868A1.712,1.712,0,0,1,44.307,48.575Z" transform="translate(-41.874 7.526)" fill="#ce181e"/>
    <path id="Path_21" data-name="Path 21" d="M54.237,54.149a1.712,1.712,0,0,1-1.707-1.707V28.087a1.707,1.707,0,1,1,3.414,0V52.442A1.712,1.712,0,0,1,54.237,54.149Z" transform="translate(-34.855 7.533)" fill="#ce181e"/>
  </g>
  <g id="Group_30" data-name="Group 30" transform="translate(0 2.68)">
    <path id="Path_22" data-name="Path 22" d="M19.259,26.889A10.189,10.189,0,1,1,29.449,16.7,10.205,10.205,0,0,1,19.259,26.889Zm0-16.948a6.776,6.776,0,1,0,6.776,6.776A6.781,6.781,0,0,0,19.259,9.941Z" transform="translate(-2.004 -6.51)" fill="#ce181e"/>
    <path id="Path_23" data-name="Path 23" d="M13.7,54.074H12.286A7.357,7.357,0,0,1,4.93,46.718v-15.7A13.024,13.024,0,0,1,17.936,18.01h8.483a12.83,12.83,0,0,1,5.837,1.382,1.7,1.7,0,0,1-1.536,3.038,9.392,9.392,0,0,0-4.3-1.024H17.936A9.6,9.6,0,0,0,8.344,31V46.7a3.955,3.955,0,0,0,3.943,3.943H13.7a1.707,1.707,0,1,1,0,3.414Z" transform="translate(-4.93 1.618)" fill="#ce181e"/>
    <path id="Path_24" data-name="Path 24" d="M10.777,54.149A1.712,1.712,0,0,1,9.07,52.442V28.087a1.707,1.707,0,0,1,3.414,0V52.442A1.712,1.712,0,0,1,10.777,54.149Z" transform="translate(-2.004 7.533)" fill="#ce181e"/>
    <path id="Path_25" data-name="Path 25" d="M20.717,48.575a1.712,1.712,0,0,1-1.707-1.707V28.077a1.707,1.707,0,0,1,3.414,0V46.868A1.712,1.712,0,0,1,20.717,48.575Z" transform="translate(5.021 7.526)" fill="#ce181e"/>
  </g>
</svg>
